<svg width="60" height="60" viewBox="0 0 60 60" fill="none" xmlns="http://www.w3.org/2000/svg">
<path d="M13.0867 8.91699C15.5927 7.97576 18.3586 8.67817 20.1833 10.5029L22.2253 12.5449C24.5125 14.832 24.8487 18.4111 23.0808 21.1279L21.5105 23.541C20.4021 25.2443 20.1476 27.2003 20.906 28.7344C21.943 30.8319 23.3076 32.7327 24.9353 34.3721L25.2644 34.6963L25.3025 34.7344C27.0136 36.5076 29.0271 37.9867 31.2644 39.0928C32.7985 39.8512 34.7545 39.5967 36.4578 38.4883L38.8708 36.918C41.5877 35.1501 45.1667 35.4863 47.4539 37.7734L49.4958 39.8154C51.3206 41.6402 52.023 44.406 51.0818 46.9121C50.9339 47.3058 50.7678 47.7384 50.5808 48.2119C48.3922 53.753 42.6815 57.5721 36.6423 56.2344C28.4311 54.4154 21.151 50.2718 15.5066 44.5146L14.9705 43.9805C9.48033 38.4107 5.52882 31.3215 3.7644 23.3564C2.42662 17.3173 6.24575 11.6065 11.7869 9.41797C12.2604 9.23094 12.6929 9.0649 13.0867 8.91699ZM18.0613 12.624C17.0196 11.5825 15.4819 11.222 14.1414 11.7256C13.7637 11.8674 13.3473 12.0271 12.8894 12.208C8.45474 13.9596 5.73334 18.369 6.69409 22.707C8.33434 30.1117 12.0059 36.6987 17.1072 41.874L17.6277 42.3936C22.8754 47.7541 29.6481 51.6115 37.2917 53.3047C41.6297 54.2654 46.0392 51.544 47.7908 47.1094C47.9716 46.6515 48.1313 46.235 48.2732 45.8574C48.7767 44.5169 48.4163 42.9792 47.3748 41.9375L45.3318 39.8945C44.07 38.6329 42.0628 38.4199 40.5066 39.4326L38.0935 41.0029C35.7559 42.524 32.6628 43.1306 29.9353 41.7822C27.3943 40.526 25.1069 38.8474 23.1619 36.8359C21.1508 34.8911 19.4726 32.6041 18.2165 30.0635C16.8682 27.336 17.4748 24.2429 18.9958 21.9053L20.5662 19.4922C21.5789 17.936 21.3658 15.9288 20.1042 14.667L18.0613 12.624ZM43.4988 25C43.4988 20.3056 39.6932 16.5 34.9988 16.5H33.4988V13.5H34.9988C41.3501 13.5 46.4988 18.6487 46.4988 25V26.5H43.4988V25ZM53.4988 25C53.4988 14.7827 45.216 6.5 34.9988 6.5H33.4988V3.5H34.9988C46.8729 3.5 56.4988 13.1259 56.4988 25V26.5H53.4988V25Z" fill="black"/>
</svg>
