<svg width="24" height="24" viewBox="0 0 24 24" fill="none" xmlns="http://www.w3.org/2000/svg">
<path d="M3 18.5C3 14.6484 3 5.5 3 5.5C3 3.84315 4.34315 2.5 6 2.5H18V15.5C18 15.5 8.6163 15.5 6 15.5C4.35 15.5 3 16.8421 3 18.5Z" stroke="white" stroke-width="1.5" stroke-linejoin="round"/>
<path d="M18 15.5C18 15.5 6.57685 15.5 6 15.5C4.34315 15.5 3 16.8432 3 18.5C3 20.1568 4.34315 21.5 6 21.5C7.10455 21.5 13.4379 21.5 21 21.5V3.5" stroke="white" stroke-width="1.5" stroke-linecap="round" stroke-linejoin="round"/>
<path d="M6.5 18.5H17.5" stroke="white" stroke-width="1.5" stroke-linecap="round" stroke-linejoin="round"/>
</svg>
