<svg width="24" height="24" viewBox="0 0 24 24" fill="none" xmlns="http://www.w3.org/2000/svg">
<path d="M15.876 15.2702L14.9108 15.8983C14.1026 16.4242 13.0929 16.5963 12.2405 16.1749C11.2832 15.7016 10.4218 15.0689 9.68976 14.3102C8.93111 13.5782 8.29838 12.7168 7.82511 11.7595C7.40373 10.9071 7.57578 9.89739 8.10171 9.0892L8.72982 8.12397C9.28598 7.26933 9.17626 6.15213 8.46647 5.44234L7.64945 4.62532C7.07613 4.05201 6.21536 3.83949 5.446 4.1285C5.2917 4.18646 5.12199 4.25171 4.93566 4.3253C2.94048 5.11334 1.63246 7.13728 2.09221 9.21274C2.79511 12.3859 4.39703 15.198 6.62295 17.377C8.802 19.603 11.6141 21.2049 14.7873 21.9078C16.8627 22.3675 18.8867 21.0595 19.6747 19.0643C19.7483 18.878 19.8135 18.7083 19.8715 18.554C20.1605 17.7846 19.948 16.9239 19.3747 16.3506L18.5577 15.5335C17.8479 14.8237 16.7307 14.714 15.876 15.2702Z" stroke="#0343D4" stroke-width="2" stroke-linecap="round"/>
<path d="M14 2C18.4183 2 22 5.58172 22 10" stroke="#0343D4" stroke-width="2" stroke-linecap="round"/>
<path d="M14 6C16.2091 6 18 7.79086 18 10" stroke="#0343D4" stroke-width="2" stroke-linecap="round"/>
</svg>
